<?xml version="1.0" encoding="UTF-8"?>
<!DOCTYPE svg PUBLIC "-//W3C//DTD SVG 1.0//EN" "http://www.w3.org/TR/2001/REC-SVG-20010904/DTD/svg10.dtd">
<!-- Creator: CorelDRAW -->
<svg xmlns="http://www.w3.org/2000/svg" xml:space="preserve" width="94px" height="124px" version="1.0" style="shape-rendering:geometricPrecision; text-rendering:geometricPrecision; image-rendering:optimizeQuality; fill-rule:evenodd; clip-rule:evenodd"
viewBox="0 0 149.21 196.33"
 xmlns:xlink="http://www.w3.org/1999/xlink"
 xmlns:xodm="http://www.corel.com/coreldraw/odm/2003">
 <defs>
  <style type="text/css">
   <![CDATA[
    .fil0 {fill:#FEFEFE}
    .fil1 {fill:#EF7F1A;fill-rule:nonzero}
   ]]>
  </style>
 </defs>
 <g id="Слой_x0020_1">
  <metadata id="CorelCorpID_0Corel-Layer"/>
  <path class="fil0" d="M137.48 128.68c-1.98,-0.29 -3.82,1.08 -4.1,3.06 -0.29,1.98 1.08,3.81 3.06,4.1 1.98,0.29 3.81,-1.08 4.1,-3.06 0.29,-1.98 -1.08,-3.82 -3.06,-4.1zm-14.35 -1.82c-2.73,-0.39 -5.27,1.5 -5.67,4.23 -0.39,2.74 1.5,5.27 4.23,5.67 2.74,0.39 5.27,-1.5 5.67,-4.23 0.39,-2.74 -1.5,-5.27 -4.23,-5.67zm14.35 -122.04c-1.98,-0.29 -3.82,1.08 -4.1,3.06 -0.29,1.98 1.08,3.81 3.06,4.1 1.98,0.29 3.81,-1.08 4.1,-3.06 0.29,-1.98 -1.08,-3.82 -3.06,-4.1zm-14.35 -1.82c-2.73,-0.39 -5.27,1.5 -5.67,4.23 -0.39,2.73 1.5,5.27 4.23,5.67 2.74,0.39 5.27,-1.5 5.67,-4.23 0.39,-2.73 -1.5,-5.27 -4.23,-5.67zm8.86 172.55c-6.78,0 -11.72,-3.45 -13.45,-10.23l28.77 0c-2.37,7 -9.3,10.23 -15.32,10.23zm-66.94 -71.31l2.53 -16.41 8.07 1.25c6.2,0.95 9.49,4.36 8.67,9.68 -0.78,5.06 -4.99,7.68 -11.11,6.73l-8.16 -1.25zm-61.47 -40.22l-1.19 -11.04 12.67 -1.36c5.56,-0.6 8.36,1.26 8.71,4.52 0.39,3.68 -2.3,5.96 -7.35,6.5l-12.84 1.38zm-2.45 -22.68l-1.13 -10.53 10.79 -1.16c4.96,-0.53 7.73,1.07 8.08,4.33 0.4,3.68 -2.24,5.69 -7.29,6.24l-10.45 1.12zm114.3 -4.54c1.68,-7.01 6.08,-11.43 12.09,-11.03 6.25,0.42 10.16,5.27 10.52,12.54l-22.61 -1.51zm-110.07 138.89l1.9 -11.5 13.19 2.18c5.79,0.96 8.1,3.63 7.54,7.02 -0.63,3.83 -4,5.38 -9.26,4.51l-13.37 -2.21zm3.9 -23.62l1.81 -10.97 11.24 1.86c5.17,0.85 7.52,3.26 6.96,6.65 -0.64,3.83 -3.87,5.12 -9.13,4.25l-10.88 -1.79zm48.16 35.77l-15.7 -1.61c1.59,-2.03 2.66,-4.51 3.14,-7.4 1.43,-8.64 -2.68,-13.72 -9.84,-17.47 2.97,-0.75 5.65,-2.02 7.74,-4.02 -0.18,2.89 0,5.87 0.59,8.88 1.85,9.49 7.07,16.96 14.07,21.62zm-27.96 -114.32c7.11,-2.83 11.08,-7.82 11.28,-14.27 2.74,5.5 6.79,9.91 11.63,13l-7.76 50.34 -5.97 -50.16 -9.18 1.09zm52.3 1.78c8.14,-2.69 13.37,-7.23 17,-12.79 3.64,5.47 8.97,9.65 15.54,12.13 -3.62,1.67 -6.85,3.92 -9.58,6.64l-0.24 0.07 0.16 0c-1.85,1.85 -3.47,3.91 -4.83,6.14 -3.07,-6.07 -9.36,-10.32 -18.05,-12.19zm14.34 37.39c2.08,8.34 7.31,15.35 14.56,19.78 -8.16,5.83 -13.15,15.62 -13.15,26.87 0,3.49 0.44,6.78 1.28,9.82l-6.53 -2.97c-2.87,5.31 -6.14,9.12 -12.69,10.4 -8.8,1.71 -16.43,-4.44 -18.27,-13.87 -1.82,-9.33 2.92,-17.99 11.72,-19.71 6.02,-1.17 10.78,0.79 15.24,4.58l10.82 -12.36c-7.07,-6.63 -16.14,-10.64 -28.98,-8.14 -3.25,0.64 -6.27,1.66 -9.03,3.01l1.9 -12.39 8.52 1.31c10.2,1.58 19.1,-0.51 24.61,-6.33zm-41.84 21.84c-2.99,2.5 -5.46,5.49 -7.35,8.81 -0.39,-1.94 -1.18,-3.67 -2.28,-5.21 -1.85,-2.58 -4.5,-4.66 -8.05,-6.18l6.71 -0.8 -0.25 1.65 11.22 1.73zm-25.22 -4.74l-0.51 -0.09 -20.14 -3.33 -4.22 -35.45 19.96 -2.37 4.91 41.24zm0.32 -110.78l18.77 -0.29c-8.35,7.29 -12.51,18.31 -10.75,29.86 -2.38,-2.76 -5.9,-4.35 -10.23,-5.28 5.06,-2.88 8.55,-7.41 7.81,-14.35 -0.46,-4.27 -2.26,-7.29 -4.92,-9.42 -0.22,-0.18 -0.45,-0.36 -0.68,-0.52zm63.26 -0.97l10.96 -0.17c-5.83,5.72 -9.54,13.74 -10.15,22.9 -0.28,4.2 0.07,8.14 0.97,11.78l-7.36 -3.03c-2.69,5.44 -5.84,9.39 -12.37,10.91 -8.78,2.04 -16.67,-3.86 -18.86,-13.27 -2.17,-9.31 2.28,-18.18 11.06,-20.22 6,-1.4 10.85,0.4 15.48,4.04l10.42 -12.81 -0.15 -0.13zm35.75 42.09c-7.09,-0.48 -12.02,-4.43 -13.35,-11.64l30.99 2.06c-4.37,6.2 -9.53,10.12 -17.64,9.58zm-10.17 94.04c1.15,-6.78 5.05,-11.26 10.8,-11.26 5.98,0 10,4.37 10.81,11.26l-21.61 0zm11.25 -32.52c-9.64,0 -16.27,-8 -16.27,-17.18 0,-9.36 6.45,-17.17 16.08,-17.17 9.73,0 16.36,7.99 16.36,17.17 0,9.36 -6.45,17.18 -16.17,17.18z"/>
  <path class="fil1" d="M0 11.11l3.06 0 0 -3.15 1.51 0c2.75,0 4.75,-1.37 4.75,-3.97 0,-2.48 -1.8,-3.91 -4.59,-3.91l-4.73 0 0 11.03zm3.06 -5.55l0 -2.91 1.43 0c1.11,0 1.77,0.5 1.77,1.45 0,0.9 -0.66,1.46 -1.75,1.46l-1.45 0zm7.55 5.55l8.95 0 0 -2.6 -5.92 0 0 -1.75 5.29 0 0 -2.41 -5.29 0 0 -1.67 5.85 0 0 -2.6 -8.88 0 0 11.03zm10.52 0l3.06 0 0 -2.85 1.11 -1.24 2.78 4.09 3.67 0 -4.32 -6.29 4.18 -4.74 -3.63 0 -3.79 4.48 0 -4.48 -3.06 0 0 11.03zm12.14 0.16c2.14,0 3.62,-1.35 3.62,-8.09l0 -0.42 2.57 0 0 8.35 3.06 0 0 -11.03 -8.48 0 0 1.53c0,6.68 -0.82,7.12 -1.69,7.12 -0.14,0 -0.57,-0.03 -0.71,-0.06l-0.2 2.35c0.23,0.08 1.02,0.25 1.83,0.25zm10.32 -0.16l3.22 0 0.79 -1.97 4.25 0 0.81 1.97 3.28 0 -4.7 -11.11 -2.95 0 -4.7 11.11zm4.9 -4.35l1.25 -3.13 1.23 3.13 -2.48 0zm8.52 4.35l2.99 0 0 -6.3 2.81 4.29 0.06 0 2.83 -4.32 0 6.33 3.04 0 0 -11.03 -3.23 0 -2.64 4.27 -2.63 -4.27 -3.23 0 0 11.03zm13.68 0l3.06 0 0 -4.19 3.93 0 0 4.19 3.05 0 0 -11.03 -3.05 0 0 4.13 -3.93 0 0 -4.13 -3.06 0 0 11.03zm11.12 0l3.21 0 0.79 -1.97 4.26 0 0.8 1.97 3.28 0 -4.7 -11.11 -2.94 0 -4.7 11.11zm4.9 -4.35l1.24 -3.13 1.24 3.13 -2.48 0zm8.01 4.35l3.53 0 2.22 -3.34 1.34 0 0 3.34 3.06 0 0 -11.03 -5.22 0c-2.5,0 -4.57,1.18 -4.57,3.77 0,1.71 0.9,2.83 2.27,3.42l-2.63 3.84zm5.07 -5.69c-1.03,0 -1.64,-0.55 -1.64,-1.35 0,-0.9 0.64,-1.39 1.66,-1.39l2 0 0 2.74 -2.02 0z"/>
  <path class="fil1" d="M82.74 196.18l3.05 0 0 -8.34 4.88 0 0 -2.68 -7.93 0 0 11.02zm9.22 0l3.05 0 0 -3.15 1.51 0c2.74,0 4.74,-1.37 4.74,-3.97 0,-2.47 -1.79,-3.9 -4.58,-3.9l-4.72 0 0 11.02zm3.05 -5.54l0 -2.91 1.44 0c1.1,0 1.76,0.5 1.76,1.44 0,0.9 -0.66,1.47 -1.75,1.47l-1.45 0zm10.12 5.69c1.7,0 2.73,-0.8 3.73,-2.77l4.3 -8.4 -3.32 0 -2.36 5.18 -2.51 -5.18 -3.39 0 4.31 8.14c-0.33,0.37 -0.69,0.47 -0.96,0.47 -0.33,0 -0.82,-0.1 -1.25,-0.38l-1.19 2.2c0.74,0.44 1.59,0.74 2.64,0.74zm9.01 -0.15l3.05 0 0 -8.34 3.76 0 0 8.34 3.05 0 0 -11.02 -9.86 0 0 11.02zm11.81 0l3.06 0 0 -8.34 3.76 0 0 8.34 3.05 0 0 -11.02 -9.87 0 0 11.02zm10.94 0l3.21 0 0.79 -1.97 4.25 0 0.8 1.97 3.27 0 -4.69 -11.1 -2.94 0 -4.69 11.1zm4.9 -4.35l1.24 -3.13 1.23 3.13 -2.47 0z"/>
 </g>
</svg>
